<svg width="20" height="19" viewBox="0 0 20 19" fill="none" xmlns="http://www.w3.org/2000/svg">
<path d="M8.82747 0.569343C9.1897 -0.189779 10.2703 -0.189777 10.6325 0.569345L12.8084 5.12933C12.9542 5.43484 13.2446 5.64586 13.5802 5.6901L18.5894 6.3504C19.4233 6.46033 19.7573 7.488 19.1472 8.06709L15.4828 11.5456C15.2373 11.7787 15.1264 12.1201 15.188 12.453L16.1079 17.421C16.2611 18.2481 15.3869 18.8832 14.6476 18.482L10.207 16.0719C9.90948 15.9104 9.55048 15.9104 9.25297 16.0719L4.81232 18.482C4.07306 18.8832 3.19887 18.2481 3.35202 17.421L4.27196 12.453C4.33359 12.1201 4.22265 11.7787 3.97715 11.5456L0.312733 8.06709C-0.297298 7.488 0.0366146 6.46033 0.870519 6.3504L5.87972 5.6901C6.21533 5.64586 6.50577 5.43484 6.65155 5.12933L8.82747 0.569343Z" fill="#DFE2E7"/>
</svg>
